<svg width="138" height="29" viewBox="0 0 138 29" fill="none" xmlns="http://www.w3.org/2000/svg">
<g clip-path="url(#clip0_611_764)">
<path d="M11.2092 15.9927C11.2078 16.0964 11.1854 16.1989 11.1432 16.2942C11.1011 16.3896 11.0401 16.476 10.9637 16.5485C10.8873 16.621 10.7971 16.6781 10.6981 16.7167C10.5991 16.7552 10.4934 16.7743 10.387 16.773L7.33761 16.74C7.23118 16.739 7.12608 16.7176 7.02834 16.6769C6.93059 16.6362 6.84212 16.5772 6.768 16.503C6.69388 16.4289 6.63557 16.3412 6.59641 16.245C6.55725 16.1487 6.53801 16.0458 6.5398 15.9421L6.58568 12.9717C6.58728 12.8681 6.60982 12.7657 6.652 12.6704C6.69419 12.5751 6.75519 12.4888 6.83154 12.4163C6.90789 12.3439 6.99808 12.2867 7.09696 12.2481C7.19585 12.2095 7.30149 12.1903 7.40786 12.1914C7.51423 12.1926 7.61925 12.2141 7.71691 12.2548C7.81457 12.2955 7.90296 12.3546 7.97705 12.4287C8.05113 12.5028 8.10945 12.5904 8.14868 12.6866C8.1879 12.7828 8.20727 12.8856 8.20567 12.9892L8.19013 14.0567L14.5258 8.04415C14.6797 7.89808 14.8867 7.81732 15.1011 7.81965C15.3156 7.82197 15.5199 7.90718 15.6693 8.05654C15.8187 8.2059 15.9008 8.40717 15.8975 8.61607C15.8943 8.82497 15.806 9.0244 15.6521 9.17047L9.31645 15.1831L10.4138 15.1945C10.52 15.1958 10.6249 15.2174 10.7224 15.2582C10.8199 15.2991 10.9081 15.3582 10.982 15.4324C11.0559 15.5065 11.1139 15.5941 11.1529 15.6903C11.1919 15.7865 11.211 15.8892 11.2092 15.9927ZM20.3574 16.0918L20.4032 13.1213C20.405 13.0177 20.3858 12.9148 20.3466 12.8185C20.3075 12.7223 20.2492 12.6346 20.175 12.5604C20.1009 12.4863 20.0125 12.4272 19.9147 12.3866C19.817 12.3459 19.7119 12.3245 19.6054 12.3235L16.556 12.2905C16.3412 12.2882 16.1339 12.3691 15.9797 12.5154C15.8255 12.6617 15.7371 12.8615 15.7339 13.0708C15.7306 13.28 15.8129 13.4816 15.9625 13.6313C16.1121 13.7809 16.3168 13.8662 16.5317 13.8686L17.6285 13.8805L11.2929 19.893C11.1389 20.0391 11.0506 20.2385 11.0474 20.4474C11.0442 20.6563 11.1263 20.8576 11.2756 21.007C11.425 21.1563 11.6294 21.2415 11.8438 21.2439C12.0583 21.2462 12.2652 21.1654 12.4192 21.0194L18.7548 15.0068L18.7378 16.0757C18.7346 16.2849 18.8168 16.4866 18.9665 16.6362C19.1161 16.7858 19.3208 16.8712 19.5356 16.8735C19.7505 16.8758 19.9578 16.7949 20.112 16.6486C20.2661 16.5023 20.3546 16.3025 20.3578 16.0932L20.3574 16.0918Z" fill="#4A5DCD"/>
</g>
<path d="M40.0682 18.36C40.0682 18.84 39.9482 19.28 39.7082 19.68C39.4682 20.08 39.1482 20.4 38.7482 20.64C38.3482 20.88 37.9082 21 37.4282 21H33.8282C33.3482 21 32.9015 20.88 32.4882 20.64C32.0882 20.4 31.7682 20.08 31.5282 19.68C31.2882 19.28 31.1682 18.84 31.1682 18.36V10.14C31.1682 9.64667 31.2882 9.2 31.5282 8.8C31.7682 8.4 32.0882 8.08 32.4882 7.84C32.9015 7.6 33.3482 7.48 33.8282 7.48H37.4282C37.9082 7.48 38.3482 7.6 38.7482 7.84C39.1482 8.08 39.4682 8.4 39.7082 8.8C39.9482 9.2 40.0682 9.64667 40.0682 10.14V10.68C40.0682 10.9333 39.9815 11.1467 39.8082 11.32C39.6348 11.4933 39.4148 11.58 39.1482 11.58H38.6082C38.3548 11.58 38.1348 11.4933 37.9482 11.32C37.7748 11.1467 37.6882 10.9333 37.6882 10.68V10.14C37.6882 9.95333 37.6015 9.86 37.4282 9.86H33.8282C33.6548 9.86 33.5682 9.95333 33.5682 10.14V18.36C33.5682 18.4267 33.5948 18.4933 33.6482 18.56C33.7015 18.6133 33.7615 18.64 33.8282 18.64H37.4282C37.4948 18.64 37.5548 18.6133 37.6082 18.56C37.6615 18.4933 37.6882 18.4267 37.6882 18.36V17.76C37.6882 17.5067 37.7748 17.2933 37.9482 17.12C38.1348 16.9333 38.3548 16.84 38.6082 16.84H39.1482C39.4148 16.84 39.6348 16.9333 39.8082 17.12C39.9815 17.2933 40.0682 17.5067 40.0682 17.76V18.36ZM54.8555 18.36C54.8555 18.84 54.7355 19.28 54.4955 19.68C54.2555 20.08 53.9355 20.4 53.5355 20.64C53.1355 20.88 52.6955 21 52.2155 21H48.3755C47.8955 21 47.4488 20.88 47.0355 20.64C46.6355 20.4 46.3155 20.08 46.0755 19.68C45.8355 19.28 45.7155 18.84 45.7155 18.36V10.14C45.7155 9.64667 45.8355 9.2 46.0755 8.8C46.3155 8.4 46.6355 8.08 47.0355 7.84C47.4488 7.6 47.8955 7.48 48.3755 7.48H52.2155C52.6955 7.48 53.1355 7.6 53.5355 7.84C53.9355 8.08 54.2555 8.4 54.4955 8.8C54.7355 9.2 54.8555 9.64667 54.8555 10.14V18.36ZM52.4755 18.36V10.14C52.4755 9.95333 52.3888 9.86 52.2155 9.86H48.3755C48.3088 9.86 48.2422 9.88667 48.1755 9.94C48.1222 9.99333 48.0955 10.06 48.0955 10.14V18.36C48.0955 18.4267 48.1222 18.4933 48.1755 18.56C48.2422 18.6133 48.3088 18.64 48.3755 18.64H52.2155C52.2822 18.64 52.3422 18.6133 52.3955 18.56C52.4488 18.4933 52.4755 18.4267 52.4755 18.36ZM69.6368 20.08C69.6368 20.3333 69.5434 20.5533 69.3568 20.74C69.1834 20.9133 68.9701 21 68.7168 21H68.1368C67.7768 21 67.5101 20.8467 67.3368 20.54L63.0768 13.16C63.0501 13.1067 63.0101 13.0933 62.9568 13.12C62.9034 13.1333 62.8768 13.16 62.8768 13.2V20.08C62.8768 20.3333 62.7834 20.5533 62.5968 20.74C62.4234 20.9133 62.2168 21 61.9768 21H61.4168C61.1634 21 60.9434 20.9133 60.7568 20.74C60.5834 20.5533 60.4968 20.3333 60.4968 20.08V8.4C60.4968 8.13333 60.5834 7.91333 60.7568 7.74C60.9434 7.56667 61.1634 7.48 61.4168 7.48H61.9968C62.3568 7.48 62.6234 7.63333 62.7968 7.94L67.0568 15.32C67.0968 15.3733 67.1368 15.3933 67.1768 15.38C67.2301 15.3667 67.2568 15.3333 67.2568 15.28V8.4C67.2568 8.13333 67.3434 7.91333 67.5168 7.74C67.7034 7.56667 67.9234 7.48 68.1768 7.48H68.7168C68.9701 7.48 69.1834 7.56667 69.3568 7.74C69.5434 7.91333 69.6368 8.13333 69.6368 8.4V20.08ZM85.598 8.68L81.718 20.38C81.6647 20.5533 81.5513 20.7 81.378 20.82C81.218 20.94 81.0447 21 80.858 21H80.038C79.8513 21 79.678 20.94 79.518 20.82C79.3713 20.7 79.2647 20.5533 79.198 20.38L75.318 8.68C75.2113 8.38667 75.2513 8.11333 75.438 7.86C75.6113 7.60667 75.858 7.48 76.178 7.48H76.758C77.198 7.48 77.4913 7.68667 77.638 8.1L80.338 16.34C80.418 16.4333 80.4913 16.4333 80.558 16.34C80.838 15.4733 81.1247 14.5867 81.418 13.68C81.7247 12.76 82.0113 11.9 82.278 11.1C82.5447 10.2867 82.7647 9.61333 82.938 9.08L83.258 8.1C83.3247 7.91333 83.438 7.76667 83.598 7.66C83.7713 7.54 83.9513 7.48 84.138 7.48H84.718C85.038 7.48 85.2847 7.60667 85.458 7.86C85.6447 8.1 85.6913 8.37333 85.598 8.68ZM99.9107 20.08C99.9107 20.3333 99.8173 20.5533 99.6307 20.74C99.4573 20.9133 99.2507 21 99.0107 21H92.1307C91.8907 21 91.6773 20.9133 91.4907 20.74C91.3173 20.5533 91.2307 20.3333 91.2307 20.08V8.4C91.2307 8.13333 91.3173 7.91333 91.4907 7.74C91.6773 7.56667 91.8907 7.48 92.1307 7.48H99.0107C99.2507 7.48 99.4573 7.56667 99.6307 7.74C99.8173 7.91333 99.9107 8.13333 99.9107 8.4V8.94C99.9107 9.19333 99.8173 9.41333 99.6307 9.6C99.4573 9.77333 99.2507 9.86 99.0107 9.86H93.8507C93.6907 9.86 93.6107 9.94667 93.6107 10.12V12.78C93.6107 12.9667 93.6907 13.06 93.8507 13.06H98.2907C98.5573 13.06 98.7773 13.1467 98.9507 13.32C99.124 13.4933 99.2107 13.7067 99.2107 13.96V14.52C99.2107 14.7733 99.124 14.9933 98.9507 15.18C98.7773 15.3533 98.5573 15.44 98.2907 15.44H93.8507C93.6907 15.44 93.6107 15.52 93.6107 15.68V18.38C93.6107 18.5533 93.6907 18.64 93.8507 18.64H99.0107C99.2507 18.64 99.4573 18.7267 99.6307 18.9C99.8173 19.0733 99.9107 19.2933 99.9107 19.56V20.08ZM114.564 19.74C114.697 20.0467 114.677 20.3267 114.504 20.58C114.304 20.86 114.051 21 113.744 21H113.144C112.971 21 112.797 20.9467 112.624 20.84C112.464 20.7333 112.351 20.6 112.284 20.44L110.404 15.94C110.337 15.78 110.217 15.7 110.044 15.7H108.184C108.011 15.7 107.924 15.7867 107.924 15.96V20.08C107.924 20.3333 107.831 20.5533 107.644 20.74C107.471 20.9133 107.257 21 107.004 21H106.444C106.191 21 105.977 20.9133 105.804 20.74C105.644 20.5533 105.564 20.3333 105.564 20.08V8.4C105.564 8.13333 105.644 7.91333 105.804 7.74C105.977 7.56667 106.191 7.48 106.444 7.48H111.864C112.344 7.48 112.784 7.6 113.184 7.84C113.584 8.08 113.904 8.4 114.144 8.8C114.384 9.2 114.504 9.64667 114.504 10.14V13.06C114.504 13.58 114.364 14.0533 114.084 14.48C113.817 14.8933 113.464 15.2133 113.024 15.44C112.971 15.4533 112.931 15.5 112.904 15.58C112.877 15.6467 112.884 15.7133 112.924 15.78L114.564 19.74ZM112.124 13.06V10.14C112.124 9.95333 112.037 9.86 111.864 9.86H108.184C108.011 9.86 107.924 9.94667 107.924 10.12V13.06C107.924 13.2333 108.011 13.32 108.184 13.32H111.864C112.037 13.32 112.124 13.2333 112.124 13.06ZM129.205 8.94C129.205 9.19333 129.119 9.41333 128.945 9.6C128.772 9.77333 128.552 9.86 128.285 9.86H126.185C126.012 9.86 125.925 9.94667 125.925 10.12V20.08C125.925 20.3333 125.832 20.5533 125.645 20.74C125.472 20.9133 125.259 21 125.005 21H124.485C124.232 21 124.012 20.9133 123.825 20.74C123.652 20.5533 123.565 20.3333 123.565 20.08V10.12C123.565 9.94667 123.479 9.86 123.305 9.86H121.185C120.932 9.86 120.712 9.77333 120.525 9.6C120.352 9.41333 120.265 9.19333 120.265 8.94V8.4C120.265 8.13333 120.352 7.91333 120.525 7.74C120.712 7.56667 120.932 7.48 121.185 7.48H128.285C128.552 7.48 128.772 7.56667 128.945 7.74C129.119 7.91333 129.205 8.13333 129.205 8.4V8.94Z" fill="#4A5DCD"/>
<defs>
<clipPath id="clip0_611_764">
<rect width="16.9904" height="17.069" fill="white" transform="matrix(1 0 -0.0261531 0.999658 5.20001 6)"/>
</clipPath>
</defs>
</svg>
